<svg width="32" height="32" viewBox="0 0 32 32" fill="none" xmlns="http://www.w3.org/2000/svg">
<rect width="32" height="32" rx="6" fill="#14213b"/>
<path d="M2 24V8H8.85511C10.0594 8 11.0707 8.16406 11.889 8.49219C12.7124 8.82031 13.3325 9.28385 13.7494 9.88281C14.1714 10.4818 14.3824 11.1875 14.3824 12C14.3824 12.5885 14.2538 13.125 13.9964 13.6094C13.7443 14.0937 13.3892 14.5 12.9311 14.8281C12.4731 15.151 11.9378 15.375 11.3254 15.5V15.6562C12.0048 15.6823 12.6223 15.8568 13.1781 16.1797C13.734 16.4974 14.1766 16.9375 14.5059 17.5C14.8353 18.0573 15 18.7135 15 19.4687C15 20.3437 14.7736 21.1224 14.3207 21.8047C13.8729 22.487 13.2348 23.0234 12.4062 23.4141C11.5776 23.8047 10.5895 24 9.44181 24H2ZM6.29216 20.5312H8.29929C9.01979 20.5312 9.56017 20.3958 9.92043 20.125C10.2807 19.849 10.4608 19.4427 10.4608 18.9063C10.4608 18.5313 10.3759 18.2135 10.2061 17.9531C10.0362 17.6927 9.79434 17.4948 9.4804 17.3594C9.17162 17.224 8.7985 17.1562 8.36105 17.1562H6.29216V20.5312ZM6.29216 14.4687H8.05226C8.42795 14.4687 8.7599 14.4089 9.0481 14.2891C9.3363 14.1693 9.56017 13.9974 9.71972 13.7734C9.8844 13.5443 9.96675 13.2656 9.96675 12.9375C9.96675 12.4427 9.79177 12.0651 9.44181 11.8047C9.09185 11.5391 8.64925 11.4063 8.11401 11.4063H6.29216V14.4687Z" fill="white"/>
<path d="M18.0682 8L22.9045 21.4688H23.0955L27.9318 8H30L24.0182 24H21.9818L16 8H18.0682Z" fill="white"/>
</svg>
